<mxfile host="app.diagrams.net" modified="2023-12-06T10:14:39.712Z" agent="Mozilla/5.0 (Windows NT 10.0; Win64; x64; rv:121.0) Gecko/20100101 Firefox/121.0" etag="sRa0b829Tmrk_FxygWUH" version="22.1.5" type="github">
  <diagram name="Strona-1" id="X-7RsSTV_ApfDy_lV50m">
    <mxGraphModel dx="1687" dy="911" grid="1" gridSize="10" guides="1" tooltips="1" connect="1" arrows="1" fold="1" page="1" pageScale="1" pageWidth="827" pageHeight="1169" math="0" shadow="0">
      <root>
        <mxCell id="0" />
        <mxCell id="1" parent="0" />
        <mxCell id="tqh2C1JOozACmvzIIyUE-1" value="Właściciel drużyny" style="shape=umlActor;verticalLabelPosition=bottom;verticalAlign=top;html=1;outlineConnect=0;" vertex="1" parent="1">
          <mxGeometry x="140" y="980" width="30" height="60" as="geometry" />
        </mxCell>
        <mxCell id="tqh2C1JOozACmvzIIyUE-2" value="Użytkownik" style="shape=umlActor;verticalLabelPosition=bottom;verticalAlign=top;html=1;outlineConnect=0;" vertex="1" parent="1">
          <mxGeometry x="350" y="1010" width="30" height="60" as="geometry" />
        </mxCell>
        <mxCell id="tqh2C1JOozACmvzIIyUE-3" value="Administrator" style="shape=umlActor;verticalLabelPosition=bottom;verticalAlign=top;html=1;outlineConnect=0;" vertex="1" parent="1">
          <mxGeometry x="670" y="950" width="30" height="60" as="geometry" />
        </mxCell>
        <mxCell id="tqh2C1JOozACmvzIIyUE-6" value="Gracz" style="shape=umlActor;verticalLabelPosition=bottom;verticalAlign=top;html=1;outlineConnect=0;" vertex="1" parent="1">
          <mxGeometry x="510" y="1000" width="30" height="60" as="geometry" />
        </mxCell>
        <mxCell id="tqh2C1JOozACmvzIIyUE-7" value="" style="whiteSpace=wrap;html=1;aspect=fixed;fillColor=none;" vertex="1" parent="1">
          <mxGeometry x="19" y="120" width="790" height="790" as="geometry" />
        </mxCell>
        <mxCell id="tqh2C1JOozACmvzIIyUE-8" value="" style="endArrow=none;html=1;rounded=0;exitX=0.5;exitY=0.5;exitDx=0;exitDy=0;exitPerimeter=0;entryX=0.5;entryY=0.5;entryDx=0;entryDy=0;entryPerimeter=0;" edge="1" parent="1" source="tqh2C1JOozACmvzIIyUE-2" target="tqh2C1JOozACmvzIIyUE-6">
          <mxGeometry width="50" height="50" relative="1" as="geometry">
            <mxPoint x="290" y="740" as="sourcePoint" />
            <mxPoint x="390" y="730" as="targetPoint" />
          </mxGeometry>
        </mxCell>
        <mxCell id="tqh2C1JOozACmvzIIyUE-9" value="" style="endArrow=none;html=1;rounded=0;entryX=0.5;entryY=0.5;entryDx=0;entryDy=0;entryPerimeter=0;exitX=0.5;exitY=0.5;exitDx=0;exitDy=0;exitPerimeter=0;" edge="1" parent="1" source="tqh2C1JOozACmvzIIyUE-2" target="tqh2C1JOozACmvzIIyUE-1">
          <mxGeometry width="50" height="50" relative="1" as="geometry">
            <mxPoint x="370" y="750" as="sourcePoint" />
            <mxPoint x="40" y="700" as="targetPoint" />
          </mxGeometry>
        </mxCell>
        <mxCell id="tqh2C1JOozACmvzIIyUE-13" value="&amp;nbsp;Założenie drużyny" style="ellipse;whiteSpace=wrap;html=1;" vertex="1" parent="1">
          <mxGeometry x="290" y="475" width="100" height="50" as="geometry" />
        </mxCell>
        <mxCell id="tqh2C1JOozACmvzIIyUE-14" value="&amp;nbsp;Dołączenie do drużyny" style="ellipse;whiteSpace=wrap;html=1;" vertex="1" parent="1">
          <mxGeometry x="500" y="630" width="100" height="50" as="geometry" />
        </mxCell>
        <mxCell id="tqh2C1JOozACmvzIIyUE-16" value="Rejestracja" style="ellipse;whiteSpace=wrap;html=1;" vertex="1" parent="1">
          <mxGeometry x="260" y="820" width="90" height="40" as="geometry" />
        </mxCell>
        <mxCell id="tqh2C1JOozACmvzIIyUE-17" value="Logowanie" style="ellipse;whiteSpace=wrap;html=1;" vertex="1" parent="1">
          <mxGeometry x="369" y="860" width="90" height="40" as="geometry" />
        </mxCell>
        <mxCell id="tqh2C1JOozACmvzIIyUE-18" value="Usunięcie drużyny" style="ellipse;whiteSpace=wrap;html=1;" vertex="1" parent="1">
          <mxGeometry x="470" y="480" width="96" height="40" as="geometry" />
        </mxCell>
        <mxCell id="tqh2C1JOozACmvzIIyUE-19" value="&lt;div&gt;Opuszczenie&lt;/div&gt;&lt;div&gt;drużyny&lt;br&gt;&lt;/div&gt;" style="ellipse;whiteSpace=wrap;html=1;" vertex="1" parent="1">
          <mxGeometry x="660" y="690" width="90" height="40" as="geometry" />
        </mxCell>
        <mxCell id="tqh2C1JOozACmvzIIyUE-20" value="Dodanie statystyk meczu" style="ellipse;whiteSpace=wrap;html=1;" vertex="1" parent="1">
          <mxGeometry x="30" y="780" width="110" height="60" as="geometry" />
        </mxCell>
        <mxCell id="tqh2C1JOozACmvzIIyUE-21" value="&lt;div&gt;Przeglądanie&lt;/div&gt;&lt;div&gt;tabeli ligowej&lt;br&gt;&lt;/div&gt;" style="ellipse;whiteSpace=wrap;html=1;" vertex="1" parent="1">
          <mxGeometry x="315" y="720" width="100" height="50" as="geometry" />
        </mxCell>
        <mxCell id="tqh2C1JOozACmvzIIyUE-22" value="Przeglądanie szczegółów drużyny" style="ellipse;whiteSpace=wrap;html=1;" vertex="1" parent="1">
          <mxGeometry x="333" y="555" width="120" height="60" as="geometry" />
        </mxCell>
        <mxCell id="tqh2C1JOozACmvzIIyUE-23" value="Dodanie posta na forum" style="ellipse;whiteSpace=wrap;html=1;" vertex="1" parent="1">
          <mxGeometry x="110" y="685" width="110" height="60" as="geometry" />
        </mxCell>
        <mxCell id="tqh2C1JOozACmvzIIyUE-24" value="Usunięcie posta na forum" style="ellipse;whiteSpace=wrap;html=1;" vertex="1" parent="1">
          <mxGeometry x="180" y="540" width="100" height="60" as="geometry" />
        </mxCell>
        <mxCell id="tqh2C1JOozACmvzIIyUE-25" value="Edycja posta na forum" style="ellipse;whiteSpace=wrap;html=1;" vertex="1" parent="1">
          <mxGeometry x="30" y="440" width="100" height="47.5" as="geometry" />
        </mxCell>
        <mxCell id="tqh2C1JOozACmvzIIyUE-26" value="&amp;lt;&amp;lt;extends&amp;gt;&amp;gt;" style="html=1;verticalAlign=bottom;endArrow=open;dashed=1;endSize=8;curved=0;rounded=0;exitX=1;exitY=0.5;exitDx=0;exitDy=0;entryX=0;entryY=0.5;entryDx=0;entryDy=0;" edge="1" parent="1" source="tqh2C1JOozACmvzIIyUE-13" target="tqh2C1JOozACmvzIIyUE-18">
          <mxGeometry relative="1" as="geometry">
            <mxPoint x="339.9963636363635" y="450" as="sourcePoint" />
            <mxPoint x="486.36" y="220" as="targetPoint" />
          </mxGeometry>
        </mxCell>
        <mxCell id="tqh2C1JOozACmvzIIyUE-27" value="" style="endArrow=none;html=1;rounded=0;exitX=0.5;exitY=0;exitDx=0;exitDy=0;exitPerimeter=0;entryX=0.5;entryY=1;entryDx=0;entryDy=0;" edge="1" parent="1" source="tqh2C1JOozACmvzIIyUE-6" target="tqh2C1JOozACmvzIIyUE-14">
          <mxGeometry width="50" height="50" relative="1" as="geometry">
            <mxPoint x="390" y="480" as="sourcePoint" />
            <mxPoint x="440" y="430" as="targetPoint" />
          </mxGeometry>
        </mxCell>
        <mxCell id="tqh2C1JOozACmvzIIyUE-28" value="&amp;lt;&amp;lt;extends&amp;gt;&amp;gt;" style="html=1;verticalAlign=bottom;endArrow=open;dashed=1;endSize=8;curved=0;rounded=0;exitX=1;exitY=0.5;exitDx=0;exitDy=0;entryX=0;entryY=0;entryDx=0;entryDy=0;" edge="1" parent="1" source="tqh2C1JOozACmvzIIyUE-14" target="tqh2C1JOozACmvzIIyUE-19">
          <mxGeometry x="0.039" y="10" relative="1" as="geometry">
            <mxPoint x="503" y="564.5" as="sourcePoint" />
            <mxPoint x="550" y="564.5" as="targetPoint" />
            <mxPoint as="offset" />
          </mxGeometry>
        </mxCell>
        <mxCell id="tqh2C1JOozACmvzIIyUE-32" value="&amp;lt;&amp;lt;extends&amp;gt;&amp;gt;" style="html=1;verticalAlign=bottom;endArrow=open;dashed=1;endSize=8;curved=0;rounded=0;exitX=0;exitY=0;exitDx=0;exitDy=0;entryX=0.242;entryY=1.018;entryDx=0;entryDy=0;entryPerimeter=0;" edge="1" parent="1" source="tqh2C1JOozACmvzIIyUE-23" target="tqh2C1JOozACmvzIIyUE-25">
          <mxGeometry x="0.5695" y="-15" relative="1" as="geometry">
            <mxPoint x="450" y="450" as="sourcePoint" />
            <mxPoint x="370" y="450" as="targetPoint" />
            <mxPoint as="offset" />
          </mxGeometry>
        </mxCell>
        <mxCell id="tqh2C1JOozACmvzIIyUE-33" value="&amp;lt;&amp;lt;extends&amp;gt;&amp;gt;" style="html=1;verticalAlign=bottom;endArrow=open;dashed=1;endSize=8;curved=0;rounded=0;exitX=1;exitY=0;exitDx=0;exitDy=0;entryX=0.624;entryY=1.052;entryDx=0;entryDy=0;entryPerimeter=0;" edge="1" parent="1" source="tqh2C1JOozACmvzIIyUE-23" target="tqh2C1JOozACmvzIIyUE-24">
          <mxGeometry x="-0.1429" y="10" relative="1" as="geometry">
            <mxPoint x="234" y="589" as="sourcePoint" />
            <mxPoint x="261" y="557" as="targetPoint" />
            <mxPoint as="offset" />
          </mxGeometry>
        </mxCell>
        <mxCell id="tqh2C1JOozACmvzIIyUE-39" value="" style="endArrow=none;html=1;rounded=0;entryX=0.25;entryY=0.1;entryDx=0;entryDy=0;entryPerimeter=0;exitX=0.5;exitY=1;exitDx=0;exitDy=0;" edge="1" parent="1" source="tqh2C1JOozACmvzIIyUE-22" target="tqh2C1JOozACmvzIIyUE-6">
          <mxGeometry width="50" height="50" relative="1" as="geometry">
            <mxPoint x="390" y="480" as="sourcePoint" />
            <mxPoint x="440" y="430" as="targetPoint" />
          </mxGeometry>
        </mxCell>
        <mxCell id="tqh2C1JOozACmvzIIyUE-43" value="" style="endArrow=none;html=1;rounded=0;exitX=0.5;exitY=0;exitDx=0;exitDy=0;exitPerimeter=0;entryX=0;entryY=1;entryDx=0;entryDy=0;" edge="1" parent="1" source="tqh2C1JOozACmvzIIyUE-1" target="tqh2C1JOozACmvzIIyUE-22">
          <mxGeometry width="50" height="50" relative="1" as="geometry">
            <mxPoint x="470" y="710" as="sourcePoint" />
            <mxPoint x="520" y="660" as="targetPoint" />
          </mxGeometry>
        </mxCell>
        <mxCell id="tqh2C1JOozACmvzIIyUE-44" value="" style="endArrow=none;html=1;rounded=0;exitX=0.5;exitY=0;exitDx=0;exitDy=0;exitPerimeter=0;entryX=0.5;entryY=1;entryDx=0;entryDy=0;" edge="1" parent="1" source="tqh2C1JOozACmvzIIyUE-2" target="tqh2C1JOozACmvzIIyUE-16">
          <mxGeometry width="50" height="50" relative="1" as="geometry">
            <mxPoint x="470" y="640" as="sourcePoint" />
            <mxPoint x="520" y="590" as="targetPoint" />
          </mxGeometry>
        </mxCell>
        <mxCell id="tqh2C1JOozACmvzIIyUE-45" value="" style="endArrow=none;html=1;rounded=0;exitX=0.5;exitY=0;exitDx=0;exitDy=0;exitPerimeter=0;entryX=0.5;entryY=1;entryDx=0;entryDy=0;" edge="1" parent="1" source="tqh2C1JOozACmvzIIyUE-2" target="tqh2C1JOozACmvzIIyUE-17">
          <mxGeometry width="50" height="50" relative="1" as="geometry">
            <mxPoint x="470" y="640" as="sourcePoint" />
            <mxPoint x="520" y="590" as="targetPoint" />
          </mxGeometry>
        </mxCell>
        <mxCell id="tqh2C1JOozACmvzIIyUE-47" value="" style="endArrow=none;html=1;rounded=0;exitX=0.5;exitY=0;exitDx=0;exitDy=0;exitPerimeter=0;entryX=1;entryY=0.5;entryDx=0;entryDy=0;" edge="1" parent="1" source="tqh2C1JOozACmvzIIyUE-3" target="tqh2C1JOozACmvzIIyUE-17">
          <mxGeometry width="50" height="50" relative="1" as="geometry">
            <mxPoint x="470" y="740" as="sourcePoint" />
            <mxPoint x="520" y="690" as="targetPoint" />
          </mxGeometry>
        </mxCell>
        <mxCell id="tqh2C1JOozACmvzIIyUE-48" value="" style="endArrow=none;html=1;rounded=0;exitX=0.5;exitY=0;exitDx=0;exitDy=0;exitPerimeter=0;entryX=0.647;entryY=0.959;entryDx=0;entryDy=0;entryPerimeter=0;" edge="1" parent="1" source="tqh2C1JOozACmvzIIyUE-3" target="tqh2C1JOozACmvzIIyUE-22">
          <mxGeometry width="50" height="50" relative="1" as="geometry">
            <mxPoint x="470" y="740" as="sourcePoint" />
            <mxPoint x="520" y="690" as="targetPoint" />
          </mxGeometry>
        </mxCell>
        <mxCell id="tqh2C1JOozACmvzIIyUE-49" value="" style="endArrow=none;html=1;rounded=0;exitX=0.5;exitY=0;exitDx=0;exitDy=0;exitPerimeter=0;entryX=0;entryY=1;entryDx=0;entryDy=0;" edge="1" parent="1" source="tqh2C1JOozACmvzIIyUE-1" target="tqh2C1JOozACmvzIIyUE-20">
          <mxGeometry width="50" height="50" relative="1" as="geometry">
            <mxPoint x="470" y="640" as="sourcePoint" />
            <mxPoint x="520" y="590" as="targetPoint" />
          </mxGeometry>
        </mxCell>
        <mxCell id="tqh2C1JOozACmvzIIyUE-51" value="" style="endArrow=none;html=1;rounded=0;entryX=0;entryY=1;entryDx=0;entryDy=0;exitX=0.5;exitY=0;exitDx=0;exitDy=0;exitPerimeter=0;" edge="1" parent="1" source="tqh2C1JOozACmvzIIyUE-1" target="tqh2C1JOozACmvzIIyUE-13">
          <mxGeometry width="50" height="50" relative="1" as="geometry">
            <mxPoint x="215" y="750" as="sourcePoint" />
            <mxPoint x="265" y="700" as="targetPoint" />
          </mxGeometry>
        </mxCell>
        <mxCell id="tqh2C1JOozACmvzIIyUE-53" value="" style="endArrow=none;html=1;rounded=0;exitX=0.5;exitY=0;exitDx=0;exitDy=0;exitPerimeter=0;" edge="1" parent="1" source="tqh2C1JOozACmvzIIyUE-2" target="tqh2C1JOozACmvzIIyUE-21">
          <mxGeometry width="50" height="50" relative="1" as="geometry">
            <mxPoint x="470" y="710" as="sourcePoint" />
            <mxPoint x="520" y="660" as="targetPoint" />
          </mxGeometry>
        </mxCell>
        <mxCell id="tqh2C1JOozACmvzIIyUE-55" value="" style="endArrow=none;html=1;rounded=0;exitX=0.25;exitY=0.1;exitDx=0;exitDy=0;exitPerimeter=0;entryX=0.5;entryY=1;entryDx=0;entryDy=0;" edge="1" parent="1" source="tqh2C1JOozACmvzIIyUE-2" target="tqh2C1JOozACmvzIIyUE-23">
          <mxGeometry width="50" height="50" relative="1" as="geometry">
            <mxPoint x="650" y="750" as="sourcePoint" />
            <mxPoint x="700" y="700" as="targetPoint" />
          </mxGeometry>
        </mxCell>
        <mxCell id="tqh2C1JOozACmvzIIyUE-57" value="" style="endArrow=none;html=1;rounded=0;entryX=0.25;entryY=0.1;entryDx=0;entryDy=0;entryPerimeter=0;exitX=1;exitY=0.5;exitDx=0;exitDy=0;" edge="1" parent="1" source="tqh2C1JOozACmvzIIyUE-21" target="tqh2C1JOozACmvzIIyUE-3">
          <mxGeometry width="50" height="50" relative="1" as="geometry">
            <mxPoint x="670" y="1020" as="sourcePoint" />
            <mxPoint x="720" y="970" as="targetPoint" />
          </mxGeometry>
        </mxCell>
        <mxCell id="tqh2C1JOozACmvzIIyUE-59" value="" style="endArrow=none;html=1;rounded=0;exitX=0.5;exitY=0;exitDx=0;exitDy=0;exitPerimeter=0;" edge="1" parent="1" source="tqh2C1JOozACmvzIIyUE-3" target="tqh2C1JOozACmvzIIyUE-23">
          <mxGeometry width="50" height="50" relative="1" as="geometry">
            <mxPoint x="650" y="710" as="sourcePoint" />
            <mxPoint x="700" y="660" as="targetPoint" />
          </mxGeometry>
        </mxCell>
      </root>
    </mxGraphModel>
  </diagram>
</mxfile>
